<svg xmlns="http://www.w3.org/2000/svg" xmlns:xlink="http://www.w3.org/1999/xlink" width="1200" zoomAndPan="magnify" viewBox="0 0 900 899.99999" height="1200" preserveAspectRatio="xMidYMid meet" version="1.2"><defs><clipPath id="f4603b5933"><path d="M 44 136.636719 L 147.15625 136.636719 L 147.15625 341.449219 L 44 341.449219 Z M 44 136.636719 "/></clipPath><clipPath id="235d3ee46a"><path d="M 773 569 L 859 569 L 859 738 L 773 738 Z M 773 569 "/></clipPath><clipPath id="0d6de7050e"><path d="M 942.132812 652.78125 L 857.382812 737.53125 L 773.707031 653.855469 L 858.457031 569.105469 Z M 942.132812 652.78125 "/></clipPath><clipPath id="310c8ba593"><path d="M 942.132812 652.78125 L 857.382812 737.53125 L 773.707031 653.855469 L 858.457031 569.105469 Z M 942.132812 652.78125 "/></clipPath><clipPath id="144f5ea24f"><path d="M 942.132812 652.78125 L 857.382812 737.53125 L 773.707031 653.855469 L 858.457031 569.105469 Z M 942.132812 652.78125 "/></clipPath></defs><g id="e2716a53d6"><g style="fill:#cd1627;fill-opacity:1;"><g transform="translate(44.657412, 417.799416)"><path style="stroke:none" d="M 175.890625 -281.75 L 257.59375 -281.75 L 434.703125 0 L 342.125 0 L 310.328125 -52.328125 L 122.765625 -52.328125 L 91.375 0 L -1.203125 0 Z M 273.296875 -113.90625 L 216.546875 -208.09375 L 159.796875 -113.90625 Z M 273.296875 -113.90625 "/></g></g><g style="fill:#cd1627;fill-opacity:1;"><g transform="translate(478.142882, 417.799416)"><path style="stroke:none" d="M 369.890625 -174.6875 L 369.890625 -107.46875 L 109.078125 -107.46875 L 109.078125 -69.625 L 380.359375 -69.625 L 380.359375 0 L 30.1875 0 L 30.1875 -281.75 L 379.5625 -281.75 L 379.5625 -212.125 L 109.078125 -212.125 L 109.078125 -174.6875 Z M 369.890625 -174.6875 "/></g></g><g clip-rule="nonzero" clip-path="url(#f4603b5933)"><path style=" stroke:none;fill-rule:nonzero;fill:#000000;fill-opacity:1;" d="M 44.75 341.449219 L 44.75 136.636719 L 147.15625 136.636719 Z M 44.75 341.449219 "/></g><g clip-rule="nonzero" clip-path="url(#235d3ee46a)"><g clip-rule="nonzero" clip-path="url(#0d6de7050e)"><g clip-rule="nonzero" clip-path="url(#310c8ba593)"><g clip-rule="nonzero" clip-path="url(#144f5ea24f)"><path style=" stroke:none;fill-rule:nonzero;fill:#000000;fill-opacity:1;" d="M 858.542969 569.191406 L 857.296875 737.421875 L 773.804688 653.929688 Z M 858.542969 569.191406 "/></g></g></g></g><g style="fill:#cd1627;fill-opacity:1;"><g transform="translate(37.512949, 790.045929)"><path style="stroke:none" d="M 126.171875 -69.734375 L 393.4375 -69.734375 L 393.4375 0 L 109.640625 0 C 84.378906 0 63.6875 -7.660156 47.5625 -22.984375 C 31.4375 -38.296875 23.375 -57.910156 23.375 -81.828125 L 23.375 -200.34375 C 23.375 -224.257812 31.4375 -243.878906 47.5625 -259.203125 C 63.6875 -274.515625 84.378906 -282.171875 109.640625 -282.171875 L 389.8125 -282.171875 L 389.8125 -212.4375 L 126.171875 -212.4375 C 119.453125 -212.4375 113.804688 -210.21875 109.234375 -205.78125 C 104.671875 -201.351562 102.390625 -195.644531 102.390625 -188.65625 L 102.390625 -93.515625 C 102.390625 -86.535156 104.671875 -80.828125 109.234375 -76.390625 C 113.804688 -71.953125 119.453125 -69.734375 126.171875 -69.734375 Z M 126.171875 -69.734375 "/></g></g><g style="fill:#cd1627;fill-opacity:1;"><g transform="translate(446.661085, 790.045929)"><path style="stroke:none" d="M 30.234375 -282.171875 L 109.25 -282.171875 L 109.25 -172.125 L 186.640625 -172.125 L 302.734375 -282.171875 L 413.59375 -282.171875 L 259.203125 -138.265625 L 418.03125 0 L 307.171875 0 L 187.84375 -104.8125 L 109.25 -104.8125 L 109.25 0 L 30.234375 0 Z M 30.234375 -282.171875 "/></g></g></g></svg>