<svg xmlns="http://www.w3.org/2000/svg" xmlns:xlink="http://www.w3.org/1999/xlink" width="800" zoomAndPan="magnify" viewBox="0 0 600 161.249994" height="215" preserveAspectRatio="xMidYMid meet" version="1.2"><defs><clipPath id="0bf414c835"><path d="M 558 57 L 588 57 L 588 117 L 558 117 Z M 558 57 "/></clipPath><clipPath id="b7b47919c9"><path d="M 617.324219 86.746094 L 587.894531 116.175781 L 558.46875 86.746094 L 587.894531 57.316406 Z M 617.324219 86.746094 "/></clipPath><clipPath id="c9d0afa296"><path d="M 617.324219 86.746094 L 587.894531 116.175781 L 558.46875 86.746094 L 587.894531 57.316406 Z M 617.324219 86.746094 "/></clipPath><clipPath id="c4b7f10c6e"><path d="M 617.324219 86.746094 L 587.894531 116.175781 L 558.46875 86.746094 L 587.894531 57.316406 Z M 617.324219 86.746094 "/></clipPath><clipPath id="7c35dfb926"><path d="M 10.921875 36.117188 L 46.417969 36.117188 L 46.417969 107.109375 L 10.921875 107.109375 Z M 10.921875 36.117188 "/></clipPath></defs><g id="5025ec07e1"><g style="fill:#cd1627;fill-opacity:1;"><g transform="translate(10.710098, 134.109655)"><path style="stroke:none" d="M 61.328125 -98.234375 L 89.8125 -98.234375 L 151.578125 0 L 119.296875 0 L 108.203125 -18.25 L 42.8125 -18.25 L 31.859375 0 L -0.421875 0 Z M 95.296875 -39.71875 L 75.5 -72.5625 L 55.71875 -39.71875 Z M 95.296875 -39.71875 "/></g></g><g style="fill:#cd1627;fill-opacity:1;"><g transform="translate(161.86083, 134.109655)"><path style="stroke:none" d="M 128.96875 -60.90625 L 128.96875 -37.46875 L 38.03125 -37.46875 L 38.03125 -24.28125 L 132.625 -24.28125 L 132.625 0 L 10.53125 0 L 10.53125 -98.234375 L 132.34375 -98.234375 L 132.34375 -73.96875 L 38.03125 -73.96875 L 38.03125 -60.90625 Z M 128.96875 -60.90625 "/></g></g><g style="fill:#cd1627;fill-opacity:1;"><g transform="translate(302.345389, 134.109655)"><path style="stroke:none" d="M 43.921875 -24.28125 L 136.96875 -24.28125 L 136.96875 0 L 38.171875 0 C 29.378906 0 22.175781 -2.664062 16.5625 -8 C 10.945312 -13.332031 8.140625 -20.160156 8.140625 -28.484375 L 8.140625 -69.75 C 8.140625 -78.070312 10.945312 -84.898438 16.5625 -90.234375 C 22.175781 -95.566406 29.378906 -98.234375 38.171875 -98.234375 L 135.71875 -98.234375 L 135.71875 -73.96875 L 43.921875 -73.96875 C 41.585938 -73.96875 39.625 -73.191406 38.03125 -71.640625 C 36.4375 -70.097656 35.640625 -68.113281 35.640625 -65.6875 L 35.640625 -32.5625 C 35.640625 -30.125 36.4375 -28.132812 38.03125 -26.59375 C 39.625 -25.050781 41.585938 -24.28125 43.921875 -24.28125 Z M 43.921875 -24.28125 "/></g></g><g style="fill:#cd1627;fill-opacity:1;"><g transform="translate(444.794776, 134.109655)"><path style="stroke:none" d="M 10.53125 -98.234375 L 38.03125 -98.234375 L 38.03125 -59.921875 L 64.984375 -59.921875 L 105.390625 -98.234375 L 144 -98.234375 L 90.234375 -48.140625 L 145.53125 0 L 106.9375 0 L 65.40625 -36.484375 L 38.03125 -36.484375 L 38.03125 0 L 10.53125 0 Z M 10.53125 -98.234375 "/></g></g><g clip-rule="nonzero" clip-path="url(#0bf414c835)"><g clip-rule="nonzero" clip-path="url(#b7b47919c9)"><g clip-rule="nonzero" clip-path="url(#c9d0afa296)"><g clip-rule="nonzero" clip-path="url(#c4b7f10c6e)"><path style=" stroke:none;fill-rule:nonzero;fill:#000000;fill-opacity:1;" d="M 587.925781 57.347656 L 587.867188 116.136719 L 558.5 86.769531 Z M 587.925781 57.347656 "/></g></g></g></g><g clip-rule="nonzero" clip-path="url(#7c35dfb926)"><path style=" stroke:none;fill-rule:nonzero;fill:#000000;fill-opacity:1;" d="M 10.929688 107.101562 L 10.929688 36.125 L 46.417969 36.125 Z M 10.929688 107.101562 "/></g></g></svg>